<svg id="Layer_1" data-name="Layer 1" xmlns="http://www.w3.org/2000/svg" width="249.715" height="94.1224" viewBox="0 0 249.715 94.1224" preserveAspectRatio="xMidYMid meet"><defs><style>.cls-1{fill:#fff;}</style></defs><path class="cls-1" d="M3.888,89.8488a5.0991,5.0991,0,0,1-2.2857-1.6771,4.155,4.155,0,0,1-.8014-2.54v-.7147q0-.2469.2629-.2465H2.9815c.1749,0,.2629.0819.2629.2465v.5917A2.4455,2.4455,0,0,0,4.4,87.58a5.444,5.444,0,0,0,3.1792.8139,4.3969,4.3969,0,0,0,2.7321-.7153,2.2611,2.2611,0,0,0,.92-1.8743,1.923,1.923,0,0,0-.4728-1.3069,4.4857,4.4857,0,0,0-1.38-.9987,27.1754,27.1754,0,0,0-2.64-1.0972,27.4806,27.4806,0,0,1-3.0342-1.2582,5.518,5.518,0,0,1-1.8523-1.4918,3.6259,3.6259,0,0,1-.7358-2.3305A3.9281,3.9281,0,0,1,2.732,73.9918a7.1483,7.1483,0,0,1,4.3744-1.2083,8.7932,8.7932,0,0,1,3.4153.6166,5.1952,5.1952,0,0,1,2.2726,1.7264,4.2667,4.2667,0,0,1,.8011,2.5646v.4931q0,.2467-.2625.2465H11.3623q-.2628,0-.2625-.2465v-.37a2.6041,2.6041,0,0,0-1.0905-2.1327,4.7743,4.7743,0,0,0-3.008-.8507,4.335,4.335,0,0,0-2.5222.6285,2.0809,2.0809,0,0,0-.8932,1.8125,1.9663,1.9663,0,0,0,.4465,1.3319,3.8626,3.8626,0,0,0,1.3268.9244q.88.4072,2.693,1.0485a30.8913,30.8913,0,0,1,3.0211,1.27,5.6948,5.6948,0,0,1,1.918,1.5286,3.6437,3.6437,0,0,1,.7619,2.3549,4.0732,4.0732,0,0,1-1.6946,3.44,7.6165,7.6165,0,0,1-4.6632,1.27A9.4472,9.4472,0,0,1,3.888,89.8488Z" transform="translate(-0.8009 -0.8312)"/><path class="cls-1" d="M26.968,84.67c0,.1639-.0876.2465-.2626.2465H18.3245c-.07,0-.1051.0327-.1051.0986a4.0176,4.0176,0,0,0,.1577,1.282,2.6483,2.6483,0,0,0,1.1692,1.5416,4.0952,4.0952,0,0,0,2.22.5549,3.4358,3.4358,0,0,0,2.995-1.5042c.0873-.1646.2011-.1889.3416-.0743l1.4973.9369a.2261.2261,0,0,1,.0788.3208,5.0038,5.0038,0,0,1-2.0885,1.7507,7.06,7.06,0,0,1-3.0606.6416,6.1713,6.1713,0,0,1-3.2318-.79,4.89,4.89,0,0,1-1.97-2.2438,8.8519,8.8519,0,0,1-.6306-3.5264,9.8307,9.8307,0,0,1,.289-2.7375A4.705,4.705,0,0,1,17.8778,78.48a5.8827,5.8827,0,0,1,3.4418-.9861,5.58,5.58,0,0,1,3.9672,1.2451,5.8164,5.8164,0,0,1,1.6025,3.6625A18.5056,18.5056,0,0,1,26.968,84.67ZM19.4542,80.071a2.6093,2.6093,0,0,0-.9984,1.418,5.4441,5.4441,0,0,0-.2364,1.3806c0,.066.035.0986.1051.0986H24.341c.07,0,.1049-.0326.1049-.0986a6.8373,6.8373,0,0,0-.1575-1.2083,2.7838,2.7838,0,0,0-1.0378-1.541,3.136,3.136,0,0,0-1.931-.58A3.11,3.11,0,0,0,19.4542,80.071Z" transform="translate(-0.8009 -0.8312)"/><path class="cls-1" d="M31.29,89.9474a4.3352,4.3352,0,0,1-1.852-1.2208,2.5929,2.5929,0,0,1-.6567-1.7139v-.2715c0-.164.0873-.2466.2626-.2466h1.8915c.1749,0,.2629.0826.2629.2466v.1235a1.459,1.459,0,0,0,.8011,1.2084,3.6852,3.6852,0,0,0,2.0361.518,3.449,3.449,0,0,0,1.918-.4812,1.4212,1.4212,0,0,0,.7355-1.22,1.1484,1.1484,0,0,0-.6829-1.0729,11.2323,11.2323,0,0,0-2.207-.7521,21.6889,21.6889,0,0,1-2.5091-.8014,4.6621,4.6621,0,0,1-1.7076-1.159,2.7375,2.7375,0,0,1-.6963-1.9361,3.0566,3.0566,0,0,1,1.38-2.6264,6.2309,6.2309,0,0,1,3.6648-.9743,7.3852,7.3852,0,0,1,2.6929.4563,4.0975,4.0975,0,0,1,1.8,1.27,2.906,2.906,0,0,1,.6306,1.825v.0737c0,.1645-.088.2471-.2629.2471h-1.839q-.2628,0-.2628-.2471v-.0737A1.4007,1.4007,0,0,0,35.94,79.923a3.7366,3.7366,0,0,0-2.0361-.4812,3.7166,3.7166,0,0,0-1.8785.4194,1.27,1.27,0,0,0-.7224,1.1341,1.171,1.171,0,0,0,.696,1.0854,11.64,11.64,0,0,0,2.2464.7889,25.2647,25.2647,0,0,1,2.5352.7771,4.532,4.532,0,0,1,1.7208,1.134,2.7433,2.7433,0,0,1,.7093,1.9605,3.0931,3.0931,0,0,1-1.4053,2.6638,6.3982,6.3982,0,0,1-3.7438.9862A7.9466,7.9466,0,0,1,31.29,89.9474Z" transform="translate(-0.8009 -0.8312)"/><path class="cls-1" d="M49.05,78.0238a4.2317,4.2317,0,0,1,1.8389,1.48,3.7581,3.7581,0,0,1,.6437,2.1577v8.3354q0,.2467-.2629.2465H49.273q-.2629,0-.2626-.2465v-.8881c0-.082-.044-.0987-.1313-.0494a4.5966,4.5966,0,0,1-1.6685,1.0236,6.3951,6.3951,0,0,1-2.1936.3577,5.3365,5.3365,0,0,1-3.2183-.925,3.2291,3.2291,0,0,1-1.2743-2.7987,3.5956,3.5956,0,0,1,1.4317-3.0208,6.4573,6.4573,0,0,1,4.0067-1.0973h2.9424c.07,0,.1052-.0332.1052-.0986v-.6659a2.1594,2.1594,0,0,0-.67-1.69,2.9617,2.9617,0,0,0-2.0359-.6042,3.5377,3.5377,0,0,0-1.8.407,1.6872,1.6872,0,0,0-.854,1.0972.2764.2764,0,0,1-.3152.2222l-2.1279-.2715q-.263-.0489-.2365-.1972a3.3494,3.3494,0,0,1,1.6551-2.38,6.605,6.605,0,0,1,3.6256-.9244A6.863,6.863,0,0,1,49.05,78.0238Zm-1.0643,9.7285A2.05,2.05,0,0,0,49.01,86.0016V84.5467c0-.0654-.0354-.0986-.1052-.0986h-2.47a4.6678,4.6678,0,0,0-2.47.5673,1.7648,1.7648,0,0,0-.92,1.5779,1.5564,1.5564,0,0,0,.6963,1.3812,3.2122,3.2122,0,0,0,1.8258.4687A4.2207,4.2207,0,0,0,47.9856,87.7523Z" transform="translate(-0.8009 -0.8312)"/><path class="cls-1" d="M71.21,78.64a4.1475,4.1475,0,0,1,1.1561,3.12v8.2368c0,.1645-.0879.2465-.2626.2465H70.1332q-.263,0-.2629-.2465V82.253a2.6614,2.6614,0,0,0-.7224-1.96,2.6011,2.6011,0,0,0-1.931-.7271,2.7606,2.7606,0,0,0-1.97.7153,2.511,2.511,0,0,0-.7619,1.923v7.793c0,.1645-.0879.2465-.2628.2465H62.2513q-.2628,0-.2626-.2465V82.253a2.6614,2.6614,0,0,0-.7223-1.96,2.65,2.65,0,0,0-4.5848,1.9112v7.793q0,.2467-.2626.2465H54.4224q-.2629,0-.2629-.2465V77.9376c0-.1639.0876-.2465.2629-.2465H56.419c.175,0,.2626.0826.2626.2465v.8383a.0815.0815,0,0,0,.0395.0742c.0265.0167.0568.0084.0921-.0249a4.2533,4.2533,0,0,1,3.3627-1.307,4.9927,4.9927,0,0,1,2.2857.4812,3.4407,3.4407,0,0,1,1.4712,1.4181q.0789.0988.1578,0a3.8511,3.8511,0,0,1,1.6681-1.4305,5.5307,5.5307,0,0,1,2.2991-.4688A4.335,4.335,0,0,1,71.21,78.64Z" transform="translate(-0.8009 -0.8312)"/><path class="cls-1" d="M85.975,84.67c0,.1639-.0877.2465-.2626.2465H77.3315c-.07,0-.1051.0327-.1051.0986a4.0148,4.0148,0,0,0,.1577,1.282,2.6485,2.6485,0,0,0,1.1691,1.5416,4.0958,4.0958,0,0,0,2.22.5549,3.4359,3.4359,0,0,0,2.995-1.5042c.0873-.1646.2011-.1889.3416-.0743l1.4973.9369a.226.226,0,0,1,.0787.3208,5.0035,5.0035,0,0,1-2.0884,1.7507,7.06,7.06,0,0,1-3.0607.6416,6.1709,6.1709,0,0,1-3.2317-.79,4.89,4.89,0,0,1-1.97-2.2438,8.8519,8.8519,0,0,1-.6306-3.5264,9.83,9.83,0,0,1,.2891-2.7375A4.705,4.705,0,0,1,76.8848,78.48a5.8824,5.8824,0,0,1,3.4417-.9861,5.58,5.58,0,0,1,3.9672,1.2451,5.8153,5.8153,0,0,1,1.6025,3.6625A18.5042,18.5042,0,0,1,85.975,84.67ZM78.4611,80.071a2.6092,2.6092,0,0,0-.9983,1.418,5.44,5.44,0,0,0-.2364,1.3806c0,.066.035.0986.1051.0986H83.348c.07,0,.1048-.0326.1048-.0986a6.83,6.83,0,0,0-.1574-1.2083,2.7843,2.7843,0,0,0-1.0378-1.541,3.5243,3.5243,0,0,0-3.7965-.0493Z" transform="translate(-0.8009 -0.8312)"/><path class="cls-1" d="M102.947,81.39a4.0878,4.0878,0,0,1,2.7847,4.1181,4.1582,4.1582,0,0,1-1.6025,3.5014,6.6568,6.6568,0,0,1-4.1772,1.2333H93.41q-.2628,0-.2625-.2465V73.2273c0-.164.0873-.2466.2625-.2466h6.3317a6.7858,6.7858,0,0,1,4.2431,1.1715,4.06,4.06,0,0,1,1.51,3.4153,3.6723,3.6723,0,0,1-2.5482,3.6744Q102.815,81.3167,102.947,81.39ZM95.67,75.1265V80.33c0,.0653.0347.0986.1051.0986h3.967a3.704,3.704,0,0,0,2.4039-.7153,2.3765,2.3765,0,0,0,.88-1.9485,2.4742,2.4742,0,0,0-.88-1.9973,3.6215,3.6215,0,0,0-2.4039-.74h-3.967C95.7043,75.0279,95.67,75.0606,95.67,75.1265Zm6.66,12.2682a2.95,2.95,0,0,0-.013-4.2168,3.597,3.597,0,0,0-2.4432-.7764H95.7747c-.07,0-.1051.0327-.1051.0986v5.573c0,.0659.0347.0986.1051.0986H99.952A3.4637,3.4637,0,0,0,102.3294,87.3947Z" transform="translate(-0.8009 -0.8312)"/><path class="cls-1" d="M116.1223,78.0238a4.2317,4.2317,0,0,1,1.8389,1.48,3.7588,3.7588,0,0,1,.6437,2.1577v8.3354q0,.2467-.2629.2465h-1.9967q-.2628,0-.2625-.2465v-.8881c0-.082-.044-.0987-.1313-.0494a4.5966,4.5966,0,0,1-1.6685,1.0236,6.3951,6.3951,0,0,1-2.1936.3577,5.3371,5.3371,0,0,1-3.2184-.925,3.2293,3.2293,0,0,1-1.2742-2.7987,3.5956,3.5956,0,0,1,1.4317-3.0208,6.4571,6.4571,0,0,1,4.0067-1.0973h2.9424c.07,0,.1052-.0332.1052-.0986v-.6659a2.1591,2.1591,0,0,0-.67-1.69,2.9612,2.9612,0,0,0-2.0358-.6042,3.5383,3.5383,0,0,0-1.8.407,1.6878,1.6878,0,0,0-.854,1.0972.2763.2763,0,0,1-.3151.2222l-2.128-.2715q-.2628-.0489-.2364-.1972a3.3494,3.3494,0,0,1,1.6551-2.38,6.605,6.605,0,0,1,3.6256-.9244A6.8633,6.8633,0,0,1,116.1223,78.0238Zm-1.0643,9.7285a2.05,2.05,0,0,0,1.0248-1.7507V84.5467c0-.0654-.0354-.0986-.1052-.0986h-2.4695a4.6678,4.6678,0,0,0-2.47.5673,1.7648,1.7648,0,0,0-.92,1.5779,1.5566,1.5566,0,0,0,.6962,1.3812,3.2126,3.2126,0,0,0,1.8259.4687A4.2209,4.2209,0,0,0,115.058,87.7523Z" transform="translate(-0.8009 -0.8312)"/><path class="cls-1" d="M130.6111,78.69a4.1137,4.1137,0,0,1,1.2606,3.1688v8.1382c0,.1645-.0868.2465-.2626.2465H129.613c-.1758,0-.2626-.082-.2626-.2465V82.3272a2.6231,2.6231,0,0,0-2.785-2.7618,2.7845,2.7845,0,0,0-2.0231.7646,2.6272,2.6272,0,0,0-.7883,1.9723v7.6944q0,.2467-.2626.2465h-1.9967q-.2628,0-.2628-.2465V77.9376c0-.1639.0876-.2465.2628-.2465h1.9967c.175,0,.2626.0826.2626.2465v.8876a.0814.0814,0,0,0,.0395.0742c.0264.0167.0481.0084.0656-.0249a4.0963,4.0963,0,0,1,3.3372-1.3563A4.8206,4.8206,0,0,1,130.6111,78.69Z" transform="translate(-0.8009 -0.8312)"/><path class="cls-1" d="M134.6834,89.9967V73.2273c0-.164.0873-.2466.2626-.2466h1.9967c.1746,0,.2625.0826.2625.2466v9.4944a.0788.0788,0,0,0,.0529.0743.0526.0526,0,0,0,.0784-.025l4.8607-4.9569a.39.39,0,0,1,.3149-.123H144.85c.1052,0,.1711.0291.1973.0861s.0041.1278-.0654.21l-3.3892,3.6743c-.0356.0659-.0439.1152-.0267.1479l4.02,8.1382.0261.0986c0,.1319-.079.1972-.2364.1972h-2.1018a.2869.2869,0,0,1-.2888-.1972l-3.1265-6.7077c-.0357-.0819-.0791-.09-.1313-.0249l-2.47,2.5652a.4039.4039,0,0,0-.0529.123v3.9951c0,.1645-.0879.2465-.2625.2465H134.946Q134.6831,90.2432,134.6834,89.9967Z" transform="translate(-0.8009 -0.8312)"/><path class="cls-1" d="M156.7258,78.69a4.1158,4.1158,0,0,1,1.2606,3.1688v8.1382q0,.2467-.2626.2465h-1.9966q-.263,0-.2626-.2465V82.3272a2.6223,2.6223,0,0,0-2.785-2.7618,2.7834,2.7834,0,0,0-2.0228.7646,2.6257,2.6257,0,0,0-.7883,1.9723v7.6944c0,.1645-.088.2465-.2626.2465h-1.9967q-.2629,0-.2626-.2465V73.2273c0-.164.0873-.2466.2626-.2466h1.9967c.1746,0,.2626.0826.2626.2466v5.5979a.08.08,0,0,0,.04.0742c.0261.0167.0475.0084.0653-.0249a4.0957,4.0957,0,0,1,3.3369-1.3563A4.8218,4.8218,0,0,1,156.7258,78.69Z" transform="translate(-0.8009 -0.8312)"/><path class="cls-1" d="M168.4819,78.0238a4.2326,4.2326,0,0,1,1.8392,1.48,3.7586,3.7586,0,0,1,.6434,2.1577v8.3354q0,.2467-.2626.2465h-1.9967q-.2628,0-.2625-.2465v-.8881c0-.082-.044-.0987-.1313-.0494a4.5978,4.5978,0,0,1-1.6682,1.0236,6.3969,6.3969,0,0,1-2.1939.3577,5.3393,5.3393,0,0,1-3.2187-.925,3.23,3.23,0,0,1-1.2736-2.7987,3.594,3.594,0,0,1,1.4317-3.0208,6.4549,6.4549,0,0,1,4.0064-1.0973h2.9424c.07,0,.1052-.0332.1052-.0986v-.6659a2.1594,2.1594,0,0,0-.67-1.69,2.9627,2.9627,0,0,0-2.0359-.6042,3.54,3.54,0,0,0-1.8.407,1.6878,1.6878,0,0,0-.8536,1.0972.2761.2761,0,0,1-.3149.2222l-2.1286-.2715c-.1752-.0326-.2536-.0986-.2364-.1972a3.352,3.352,0,0,1,1.6551-2.38,6.6071,6.6071,0,0,1,3.6256-.9244A6.8633,6.8633,0,0,1,168.4819,78.0238Zm-1.064,9.7285a2.05,2.05,0,0,0,1.0248-1.7507V84.5467c0-.0654-.0357-.0986-.1052-.0986h-2.47a4.6685,4.6685,0,0,0-2.47.5673,1.7654,1.7654,0,0,0-.92,1.5779,1.5559,1.5559,0,0,0,.6962,1.3812,3.2136,3.2136,0,0,0,1.8262.4687A4.2211,4.2211,0,0,0,167.4179,87.7523Z" transform="translate(-0.8009 -0.8312)"/><path class="cls-1" d="M173.5921,89.9967V73.2273c0-.164.0873-.2466.2626-.2466h1.9966c.1747,0,.2626.0826.2626.2466V89.9967c0,.1645-.0879.2465-.2626.2465h-1.9966Q173.5918,90.2432,173.5921,89.9967Z" transform="translate(-0.8009 -0.8312)"/><path class="cls-1" d="M178.9779,89.9967V73.2273c0-.164.0873-.2466.2626-.2466h1.9967c.1746,0,.2626.0826.2626.2466V89.9967c0,.1645-.088.2465-.2626.2465h-1.9967Q178.9776,90.2432,178.9779,89.9967Z" transform="translate(-0.8009 -0.8312)"/><path class="cls-1" d="M191.7059,89.7377a5.2853,5.2853,0,0,1-2.2593-1.9973,5.526,5.526,0,0,1-.8014-2.9715V78.4557a5.5087,5.5087,0,0,1,.8014-2.984,5.314,5.314,0,0,1,2.2593-1.9854,8.368,8.368,0,0,1,6.6863-.0119,5.3978,5.3978,0,0,1,2.2461,1.9111,4.9,4.9,0,0,1,.8014,2.7494v.2715c0,.1645-.0879.2465-.2625.2465h-1.9967q-.2629,0-.2626-.2465v-.2222a3.0357,3.0357,0,0,0-1.064-2.4042,4.112,4.112,0,0,0-2.798-.925,4.0516,4.0516,0,0,0-2.8243.9618,3.2887,3.2887,0,0,0-1.0639,2.5646v6.4611a3.2323,3.2323,0,0,0,1.1031,2.5646,4.2371,4.2371,0,0,0,2.89.9618,4.1282,4.1282,0,0,0,2.7452-.8507,2.8834,2.8834,0,0,0,1.0117-2.33V83.289c0-.0653-.0356-.0986-.1051-.0986h-3.5466q-.2629,0-.2632-.2465V81.4147c0-.1639.0879-.2465.2632-.2465h5.911c.1746,0,.2625.0826.2625.2465v3.132a5.5325,5.5325,0,0,1-1.72,4.3646,6.7663,6.7663,0,0,1-4.6634,1.5292A7.6242,7.6242,0,0,1,191.7059,89.7377Z" transform="translate(-0.8009 -0.8312)"/><path class="cls-1" d="M211.5282,77.8883a.2239.2239,0,0,1,.1313.2959l-.4206,1.8493c-.0178.1485-.1223.1979-.3148.1485a2.9107,2.9107,0,0,0-1.0509-.1728l-.3684.0243a3.0453,3.0453,0,0,0-2.0358.802,2.5637,2.5637,0,0,0-.8014,1.9605v7.2007c0,.1645-.088.2465-.2626.2465h-1.9967q-.2628,0-.2626-.2465V77.9376c0-.1639.0874-.2465.2626-.2465h1.9967c.1746,0,.2626.0826.2626.2465v1.307c0,.0493.013.0784.04.0861s.0475-.0035.0653-.0368a3.7174,3.7174,0,0,1,3.2318-1.7264A3.5516,3.5516,0,0,1,211.5282,77.8883Z" transform="translate(-0.8009 -0.8312)"/><path class="cls-1" d="M214.6275,89.5155a4.883,4.883,0,0,1-2.0228-2.5765,8.9532,8.9532,0,0,1-.4729-3.009,8.57,8.57,0,0,1,.4468-2.959,4.8877,4.8877,0,0,1,2.0228-2.5527,6.2508,6.2508,0,0,1,3.442-.9244,5.8658,5.8658,0,0,1,3.2971.9244,5.1069,5.1069,0,0,1,2.01,2.5277,8.3983,8.3983,0,0,1,.4728,2.96,8.8979,8.8979,0,0,1-.4728,3.0333,4.9245,4.9245,0,0,1-1.9967,2.5765,5.9732,5.9732,0,0,1-3.3369.925A6.1484,6.1484,0,0,1,214.6275,89.5155Zm5.2284-1.6765a3.0443,3.0443,0,0,0,1.13-1.5659,7.98,7.98,0,0,0,.2887-2.3181,8.4645,8.4645,0,0,0-.2626-2.2937,3.0431,3.0431,0,0,0-1.13-1.566,3.25,3.25,0,0,0-1.9177-.5549,3.1594,3.1594,0,0,0-1.8654.5549,3.04,3.04,0,0,0-1.13,1.566,7.4282,7.4282,0,0,0-.2887,2.2937,7.6746,7.6746,0,0,0,.2887,2.3181,2.88,2.88,0,0,0,1.1169,1.5659,3.3088,3.3088,0,0,0,1.9307.5549A3.1163,3.1163,0,0,0,219.8559,87.839Z" transform="translate(-0.8009 -0.8312)"/><path class="cls-1" d="M234.3055,77.6911h1.9705c.1747,0,.2626.0826.2626.2465V89.9967c0,.1645-.0879.2465-.2626.2465h-1.9705q-.2628,0-.2626-.2465v-.9125a.0576.0576,0,0,0-.04-.0618c-.0261-.0077-.057.0042-.092.0368a3.83,3.83,0,0,1-3.2312,1.3569,5.9641,5.9641,0,0,1-2.3775-.4687,4.091,4.091,0,0,1-1.7471-1.3812,3.6927,3.6927,0,0,1-.6571-2.2195V77.9376c0-.1639.0874-.2465.2626-.2465h1.9705c.1753,0,.2626.0826.2626.2465v7.6695a2.7673,2.7673,0,0,0,.723,2.0222,2.7141,2.7141,0,0,0,2.0359.74,2.916,2.916,0,0,0,2.1018-.7521,2.6492,2.6492,0,0,0,.7883-2.01V77.9376C234.0429,77.7737,234.13,77.6911,234.3055,77.6911Z" transform="translate(-0.8009 -0.8312)"/><path class="cls-1" d="M250.5159,84.0043a9.46,9.46,0,0,1-.4206,2.984,4.9519,4.9519,0,0,1-1.8131,2.5521,5.43,5.43,0,0,1-3.2311.9,4.3787,4.3787,0,0,1-1.6949-.3327,3.935,3.935,0,0,1-1.3789-.9493c-.0356-.0333-.0659-.041-.092-.025a.0817.0817,0,0,0-.0392.0743v5.4987q0,.2467-.2632.2471h-1.9967q-.2628,0-.2626-.2471V77.9376c0-.1639.0874-.2465.2626-.2465h1.9967c.1752,0,.2632.0826.2632.2465v.8139a.08.08,0,0,0,.0392.0737c.0261.0166.0564.0089.092-.0244a4.1165,4.1165,0,0,1,1.3658-.9618,4.2156,4.2156,0,0,1,1.708-.3451,5.34,5.34,0,0,1,3.14.875,5.0036,5.0036,0,0,1,1.8256,2.4785A8.9968,8.9968,0,0,1,250.5159,84.0043Zm-2.5485-.0493a6.1831,6.1831,0,0,0-.6571-3.0583,2.6414,2.6414,0,0,0-2.4957-1.3563,2.53,2.53,0,0,0-2.3121,1.332,6.1733,6.1733,0,0,0-.63,3.1069,5.9667,5.9667,0,0,0,.6832,3.1569,2.454,2.454,0,0,0,2.2331,1.2577,2.5883,2.5883,0,0,0,2.3382-1.184A5.5368,5.5368,0,0,0,247.9674,83.955Z" transform="translate(-0.8009 -0.8312)"/><path class="cls-1" d="M31.2944.8312V61.19H91.6529V.8312ZM69.3635,45.2329q-2.78,2.0585-7.71,2.0578a13.5247,13.5247,0,0,1-8.0019-2.0988,6.5528,6.5528,0,0,1-2.9362-5.5986v-1.276c0-.2739.1491-.4117.4483-.4117H53.36c.2983,0,.4483.1378.4483.4117v1.1115a4.46,4.46,0,0,0,2.1517,3.849,10.5069,10.5069,0,0,0,5.9621,1.4608,8.6875,8.6875,0,0,0,5.245-1.3373A4.2257,4.2257,0,0,0,68.96,39.8405a3.8155,3.8155,0,0,0-.8293-2.47,8.0586,8.0586,0,0,0-2.5554-1.9349,47.1641,47.1641,0,0,0-4.8636-2.0994,54.2071,54.2071,0,0,1-5.2225-2.1606,8.61,8.61,0,0,1-3.0036-2.3876,5.7961,5.7961,0,0,1-1.143-3.6838,6.2668,6.2668,0,0,1,2.6222-5.3722A11.9841,11.9841,0,0,1,61.16,17.8183a12.8551,12.8551,0,0,1,7.8447,2.14,6.7454,6.7454,0,0,1,2.8691,5.68v.906q0,.4116-.4483.4117H69.1841q-.4486,0-.4482-.4117v-.7414a4.68,4.68,0,0,0-2.04-3.91A9.3093,9.3093,0,0,0,61.0254,20.37a8.4532,8.4532,0,0,0-4.8862,1.1941,3.9592,3.9592,0,0,0-1.7035,3.4575,3.6269,3.6269,0,0,0,.8293,2.4493,6.9173,6.9173,0,0,0,2.376,1.6878q1.5465.72,4.774,1.8725a45.4182,45.4182,0,0,1,5.2673,2.305A10.29,10.29,0,0,1,70.91,35.9505a5.8456,5.8456,0,0,1,1.233,3.7664A6.5194,6.5194,0,0,1,69.3635,45.2329Z" transform="translate(-0.8009 -0.8312)"/><path class="cls-1" d="M120.31,30.908h7.6208a6.9582,6.9582,0,0,0,4.5054-1.358,4.4226,4.4226,0,0,0,1.6812-3.6227,4.732,4.732,0,0,0-1.6812-3.8074,6.75,6.75,0,0,0-4.5054-1.42H120.31c-.12,0-.1791.0553-.1791.1646v9.8788C120.1313,30.8534,120.1907,30.908,120.31,30.908Z" transform="translate(-0.8009 -0.8312)"/><path class="cls-1" d="M132.7051,34.8806a6.8185,6.8185,0,0,0-4.64-1.5024H120.31c-.12,0-.1791.0552-.1791.1645V44.2039c0,.11.0594.1646.1791.1646h7.9344a6.5673,6.5673,0,0,0,4.5055-1.4822,5.0552,5.0552,0,0,0,1.6812-3.9928A5.0563,5.0563,0,0,0,132.7051,34.8806Z" transform="translate(-0.8009 -0.8312)"/><path class="cls-1" d="M95.2034.8312V61.19h60.3584V.8312Zm39.8328,44.0725a10.56,10.56,0,0,1-6.7914,2.0579h-10.848q-.4487,0-.4485-.4117V18.56q0-.4117.4485-.4117h10.5344a10.71,10.71,0,0,1,6.8365,1.9759,6.69,6.69,0,0,1,2.488,5.5569,6.236,6.236,0,0,1-1.1881,3.8484,7.2952,7.2952,0,0,1-3.3851,2.4084c-.15.0819-.15.1645,0,.2465a7.62,7.62,0,0,1,3.6762,2.6757,7.2133,7.2133,0,0,1,1.2558,4.2809A6.96,6.96,0,0,1,135.0362,44.9037Z" transform="translate(-0.8009 -0.8312)"/><path class="cls-1" d="M159.1123.8312V61.19h60.3583V.8312ZM199.8036,27.08c0,.2751-.15.4117-.4479.4117h-2.2866c-.2988,0-.4479-.1366-.4479-.4117v-.4936a5.6625,5.6625,0,0,0-1.9949-4.4871,8.9742,8.9742,0,0,0-10.6469.0416,5.891,5.891,0,0,0-2.0169,4.651V38.3173a5.83,5.83,0,0,0,2.062,4.6516,8.0335,8.0335,0,0,0,5.4239,1.77,7.8285,7.8285,0,0,0,5.2224-1.6462,5.47,5.47,0,0,0,1.95-4.4044V34.9424c0-.1093-.0606-.1652-.1794-.1652h-6.59q-.4482,0-.4479-.4111V32.6368q0-.4108.4479-.4111h9.504q.4473,0,.4479.4111v5.31a8.6182,8.6182,0,0,1-2.8461,6.874,11.2579,11.2579,0,0,1-7.6434,2.47A12.6775,12.6775,0,0,1,183.8,46.159a8.7451,8.7451,0,0,1-3.698-3.19,8.5624,8.5624,0,0,1-1.3224-4.7336V26.8743a8.5655,8.5655,0,0,1,1.3224-4.7336,8.7485,8.7485,0,0,1,3.698-3.19,12.6861,12.6861,0,0,1,5.5142-1.1323,12.9264,12.9264,0,0,1,5.4916,1.1115,8.6054,8.6054,0,0,1,3.6981,3.1082,8.08,8.08,0,0,1,1.3,4.5072Z" transform="translate(-0.8009 -0.8312)"/></svg>